<?xml version="1.0" encoding="UTF-8"?>
<svg width="128" height="128" viewBox="0 0 128 128" fill="none" xmlns="http://www.w3.org/2000/svg" role="img" aria-label="Token icon placeholder">
  <defs>
    <linearGradient id="g" x1="0" y1="0" x2="0" y2="1">
      <stop offset="0%" stop-color="#f2c14e"/>
      <stop offset="100%" stop-color="#d4a017"/>
    </linearGradient>
    <linearGradient id="shine" x1="0" y1="0" x2="1" y2="1">
      <stop offset="0%" stop-color="#ffffff" stop-opacity="0.6"/>
      <stop offset="100%" stop-color="#ffffff" stop-opacity="0"/>
    </linearGradient>
  </defs>
  <circle cx="64" cy="64" r="58" fill="url(#g)" stroke="#b58b0a" stroke-width="6"/>
  <circle cx="64" cy="64" r="44" fill="none" stroke="#b58b0a" stroke-width="4"/>
  <path d="M20 36 C40 16, 88 16, 108 36" fill="none" stroke="url(#shine)" stroke-width="10" stroke-linecap="round"/>
  <g fill="#2d2620">
    <path d="M49 42h30a4 4 0 0 1 0 8H49a4 4 0 0 1 0-8zm-6 18h42a4 4 0 0 1 0 8H43a4 4 0 0 1 0-8zm8 18h26a4 4 0 0 1 0 8H51a4 4 0 0 1 0-8z"/>
  </g>
</svg>
